/* XPM */
static char *result[] = {
/* columns rows colors chars-per-pixel */
"60 60 2 1 ",
"  c #D2AB65",
". c #D5B16B",
/* pixels */
"          .       ..  .. .   . .   .              .     ....",
"   .  . . .       ... ...  ....                .....     ...",
"  .... .. .      .... .. .  ...        ....   .......... ...",
"  ..... .. .      .   ..     ..      ....... ...............",
"    ...  .. . . ...    . . . ..    .........................",
"    .... .....         .  ......... ........................",
" .... ......      . ..... .  ....... .......................",
" .... ...         .   . ....    .  ..  .... ................",
" .....             .  ......        .   ....................",
"  ... . ...    .  .  ........      . .  ....................",
"  .    . . .    ...  ........   . .     ....................",
"          ..  . ...  ........   .  .... ..   .......... ....",
"   . .    .. . ....... .......    .  .       .........  ....",
"  .  .     .  ...     .......          .      ... ..........",
"             ..      . ......                 ....  ........",
". .           .  .   ....   .   . ..       . .....  ........",
"          ..           .. . .   .   .      .......  ........",
"           ..         .  . ..              .................",
"          ..        .. . ....             ..................",
"           .        ... .....             ..................",
"                    .. .... .              .................",
"                    . ...  ..   .   .       ................",
"                    .        .  . .  ..      ...............",
"                   .   ..  .    ... ....     ...............",
"                  ..   ...  ..     .... ..    ..............",
"                    .. ........  .  .......   .. ...........",
"                     .  ...... ..   ........  ..............",
"                      .  .... ....  ......   ...............",
"                   . . ...........  ..... .  ...............",
"                   ............... .........................",
"                    . ......................................",
"                     . ............. .......................",
"                      .............    .....................",
"                      .............   ......................",
"                       ............. .......................",
"         .            ......................................",
"                       .....................................",
"          .              ...................................",
"                         ...................................",
"                         ....... ...........................",
"                       .  .... .  ...... ...................",
"          .            .   ..   . . ...   ..................",
"           .              ...   . .     ....................",
"        ...             .  .            ....................",
"         .                              . .........   ......",
"         .                              .  ........ ........",
"                                        ....................",
"          .  .                          ....................",
"          . .                           ....................",
"                                         ...................",
"                                         .................  ",
"                                          .     .. .... ... ",
"                                        .. ...............  ",
"                                       .. . ............... ",
"                                    .... ...................",
"                        ...       .  . .. ..................",
"                       . ...      .    ..  ..  .............",
"                      ...        .    ... ... ..............",
"                         .        .  ..    .. ..............",
"                       ..             .     . .............."
};
