/* XPM */
static char *result[] = {
/* columns rows colors chars-per-pixel */
"60 60 21 1 ",
"  c #756A60",
". c #7F756B",
"X c #71675D",
"o c #6D6459",
"O c #8F8378",
"+ c #7B7268",
"@ c #61574E",
"# c #5D534A",
"$ c #847A70",
"% c #9B8D80",
"& c #655C52",
"* c #584F45",
"= c #897E74",
"- c #6A6056",
"; c #94887D",
": c #786E64",
"> c #524A40",
", c #A89A8D",
"< c #A19386",
"1 c #4C443A",
"2 c #B6A89C",
/* pixels */
"@@@#*111*&&@&-o++o-oX$;%%%;O%.X  X-@@o$;<<,,<=o@::#*XX- o=,,",
">>>11*-X+$==;;;;;O$ -&oXX X :##&#@&X=%,,,,222,O ##*>-+O%.%,,",
"&@>>-+$=;;%%%%%;;;;;+##@@@&@###**oO,,222,,,,<%%;+#1@;,,%+<,,",
"$+&:===OOOOO=====O;%Oo#*####**##o;,222,,,,,,<%%;;&*:,,,.-=<,",
"$:o$==============$$$.&>*@@*1o$$ %222,,,,,<<<%%%O:=$;;.## ;<",
"+o+$$====$=$=====$$$.+@>@--&*.%O:$O<,,,,,,<<<<<%;%<Ooo&*#&:$",
"+$++$$$=$=$=$$=$$$$$.X*#&-o&*o$.;<%;%<<,<<<<%%;;<,,<:#&o-&&@",
"$=$...$==$$$$$$$$=..+&>#&&o@*@+,22,,,<<<<<<<%O;<,<,O:@&oo#@@",
"===$..++$$==$$$$$.:X-#>#&&@*>&;22,,,,,,<%=$$.O,,,<;. @@-@#-&",
"===$$..+ +.===$.+X-&@#**#*>>1#:;,,2,,,,,,<O::O<,,;.+:#>***#*",
"==$==$$$:-&-:+ Xoo-@#*#**@X @*-.<,,,,,,<,<<O +$;O$.:X>>@@@@@",
"..$$$$. -&&&-&&----@@#& .=;.#*@ O%;;;O%<,<<Oo-++ +.X#*##@###",
"-X:+:X-@##&&###@-X  : :..++X###-XXXXX:.=O=+&**&-@--#*#####@#",
"#@&&&--&##***#&:$$::  ::::Xo--*@--o---ooX o**>>>**>*#*##@###",
"& $=O%<%=+&>&+==.:    :: XX:: ##&-&---oooo&#*##*>1*@########",
"O%<<<,,<<%.#.O$:  : :     ::: @*#&@&@@@@&o:+.O;.#>@@########",
"<,<,,<<<<<$&..: :        : :: @>@oo-&&:$O;%;;OO #>@#########",
",,,<,<<<<% & :: : :  XX+: ::: @#&-&@XO;OOOO=OO=X#*@@########",
"<,,,<<<<%:@*-   X   X-&:  ::X@o$O=X@$O==OOOOOO$o**@@@#####@#",
";<%%%%%;:@*1@--oX-&-X-@X:: X@ ;;OOO..=OOOOOOOO.&>>@@@@###@#*",
"X+ : o&@>>>1&o-&@>>@&@1*-XX@:%OOOO==$$=OO===.$+&>>#@##@##@#*",
"#@&&&@@#>1***@@@#>>>#>1>>*#*.;OOOOOO=$..$$....+#>1****#@@&#*",
".$==$.+ o##@##@&@&o:.: ::: &+;;OO;O=$$+  +...+o#>1>>>>***#>>",
";%;;;;O.:o+$.  ===OOO==O$$.oo$OO;;=.+:: --X  o##&  #>11>1111",
"%;%%%%%O++;;OO$=O;OOOOO===$:#&o +:  Xo-&@#*##@-:$;Oo@>1111>*",
"%%%%%%%;+.;;;;O=OOOOOOOOO==.@>*&---&@###@-X :+$===$X-&#1>@--",
"%%%%%%<;+:O;;;OOO=OOOOO=O==.&>X$$$.+ #@:$=O==$...$$. o&*&Xoo",
"%%%%<%%%.X$;;;OOOO=.$====O$ #* .$$$.+& $$$$$$$.$.$.$$X&*&---",
"<%%%%%%;.o =;OO=OO= +.+   o#>1-:...+ @X$$$$$$$$.$$$..o&*#-oo",
"%<%%%%;;+-o +:   o@-o&###@@#>>*@oX o&*&.=$$.....+X-&#****@o-",
"<%%%%%;O &##&&@@#*>>11o$OO=$.. o-#**>1>&XX---&&@#*#&&Xo::-&#",
"%%%%%%%$X#&.=====$.-1X%%O=$$$$$$$->* :XXooooXXXoX:+.$$...$$.",
"%%%%%%O+--=OOOOOOO;+#+.$$$=$$$$$$-*-OO=OO$.+::::       XX +.",
"%%%%%OO:& OOO;O;;O$ @X.$====$$$$:@@ : ++XXo--o--o  XXXXXX Xo",
"%%%%;;= -+$OOOOO=$+o** :  X Xo-@#*- ooX------X XX X   XXXXoo",
"%%;;;%$-&:+$=O;=.:-#>1***#@&&@#>1*XXoo-&-oX ::+: X    XXoooX",
"%%%;;OX@o+++  :X-&- ..$$$==O===$**ooo--ooX :: X  X     XoXXX",
";O=$ -@@ .++-*@ $O;%%%%%%%%;;%;$#>#ooXX  X   X    X  XXXXX  ",
"oo--&@*# ++:&:;<<%%%%;%;%%%%%%<.*1>#o   XXX                 ",
"##@&@&@@#*&-$,,%%%%%;;;;%;%%%%%o#*&X: XXXoXX     :XX::      ",
"@#   XoXX*1o;,%;%%%%%%;%%%%%%<=@*&:+XX XXX      X-o         ",
"&-:XooooX&*o$;O;%%%%%;%%;%%%<$-#>#X X     XXXXX-*o X  XX  XX",
"-&ooooooo-@@:==OOOOO;;%;;O=$+&#*1>-XXXXX XXXX-@*>  XXXoXX o&",
"X@&ooooooX->-.=$$$==OOO;O.o&@@*>>1&X XXXXXXX&#>>1>@&&&---@#*",
"X##-ooooo:X>*-X+$=$===$+o@@#@#>>*1>##&&--&@#**>>*>>111>>>>1>",
"-##&--&&X :#1>#--ooX  -######*>>>1*#*>>>*>>>*@o:.+ X-*1111*&",
"&**@*>****#>111*####*#***@&o++:XX:+$.: &*>>@ O%%<%;;.&11>>-.",
"@>*>1>11>>>*#- :o@#*#**>-$$$.:++++:+.$=.X#@.;<%%<<%%$->*@-=<",
"*11>**##&o :.$.+-@@#@@#*:$++++:::++...++X--O<<<%%<%O.-#&#X%<",
">- ....++:+++++.:@@##@*-..++:+:+:+++...+ o-O%%%%%<%..X#X&-%<",
"-$===$.......+++$ @#**#:.+:+:+:+++++..++X-&=%%%%<%%$:-@Xo&:%",
"$$.++++..+...+..$:@#*1@:+++:+++++.++... @#&$;%<%%%%$:#&ooo&+",
"$$.+.+...++..+ X-@&&#>-$.+++++++++..: X&#*# =%%%%;O$+#&Xoo&@",
"........+++:X-&@#@&@*>@ +.+++++++.: o-@##*>@:=OO=$$.->>-oo-#",
"++..+++ XX-&&&-&###>11>#o: ::++++:o-&@@**>1>- :::::o@##@-o@#",
"ooX  o-&@&@&&&@#*>>>11>#@--X Xooo&&&@#*>>>>*>#&--oo :+: ==$:",
"##@@@#####@@@#*>111>>>>>***@o-&&@***>>>>1>##& .==OOOOO=$;;%%",
"&&&--oX  oo +:@1#- +.$:oo-X:+++:o@>*@-&#>X$=;;OOOOOO;O$OOOO;",
"..$=O;;;;;O:X &>-$=====$$$$$$.$.$+&@X:o*-O;;;;;;;;;;;O=OOOOO",
"=O;%%%%O$.: o&*1@+=$===$$=$$$$$$.$+@@&#-O;;;;;;;;;;;;OOOOOOO"
};
